<?xml version="1.0" encoding="UTF-8"?>
<svg width="26px" height="29px" viewBox="0 0 26 29" version="1.1" xmlns="http://www.w3.org/2000/svg" xmlns:xlink="http://www.w3.org/1999/xlink">
    <title>Shape</title>
    <g id="Landing" stroke="none" stroke-width="1" fill="none" fill-rule="evenodd">
        <g id="Homepage-landing" transform="translate(-629.000000, -688.000000)" fill="#FFFFFF" fill-rule="nonzero">
            <g id="social" transform="translate(590.000000, 688.000000)">
                <path d="M56.2384171,13.6605718 C56.2384171,14.5377243 55.5913374,15.2567017 54.7717031,15.2567017 C53.9664483,15.2567017 53.304989,14.5377243 53.304989,13.6605718 C53.304989,12.7834193 53.9520687,12.0644418 54.7717031,12.0644418 C55.5913374,12.0644418 56.2384171,12.7834193 56.2384171,13.6605718 Z M49.5231676,12.0644418 C48.7035333,12.0644418 48.0564536,12.7834193 48.0564536,13.6605718 C48.0564536,14.5377243 48.7179128,15.2567017 49.5231676,15.2567017 C50.3428019,15.2567017 50.9898816,14.5377243 50.9898816,13.6605718 C51.0042612,12.7834193 50.3428019,12.0644418 49.5231676,12.0644418 Z M64.7079716,2.96218714 L64.7079716,28.7590985 C61.0853362,25.557739 62.243901,26.6174444 58.0358607,22.7053082 L58.7979768,25.3655249 L42.491568,25.3655249 C40.8666789,25.3655249 39.5437604,24.0426063 39.5437604,22.4033377 L39.5437604,2.96218714 C39.5437604,1.32291853 40.8666789,0 42.491568,0 L61.760164,0 C63.385053,0 64.7079716,1.32291853 64.7079716,2.96218714 Z M60.6098,16.5939998 C60.6098,11.963785 58.539145,8.21072262 58.539145,8.21072262 C56.4684899,6.6577313 54.4984916,6.70075045 54.4984916,6.70075045 L54.2971779,6.93094273 C56.7417013,7.67867929 57.8776857,8.75714549 57.8776857,8.75714549 C54.4619249,6.88505175 50.4495251,6.88471473 47.1361624,8.34013856 C46.6041191,8.5845909 46.287769,8.75714549 46.287769,8.75714549 C46.287769,8.75714549 47.4812716,7.6211611 50.0695905,6.87342454 L49.925795,6.70075045 C49.925795,6.70075045 47.9557967,6.6577313 45.8851416,8.21072262 C45.8851416,8.21072262 43.8144865,11.963785 43.8144865,16.5939998 C43.8144865,16.5939998 45.0223687,18.6790345 48.200249,18.7796913 C48.200249,18.7796913 48.7322924,18.1326116 49.1636788,17.5861887 C47.3374761,17.0397658 46.6472577,15.8894019 46.6472577,15.8894019 C46.8587944,16.0374663 47.2076108,16.2293996 47.2368193,16.2488906 C49.6639299,17.6080951 53.1115392,18.0534117 56.209658,16.7521749 C56.7129422,16.5652407 57.2737446,16.2920293 57.8633061,15.9037815 C57.8633061,15.9037815 57.1443287,17.0829045 55.2606077,17.6149478 C55.6919942,18.1613707 56.209658,18.7796913 56.209658,18.7796913 C59.3875384,18.6790345 60.6098,16.5939998 60.6098,16.5939998 L60.6098,16.5939998 Z" id="Shape"></path>
            </g>
        </g>
    </g>
</svg>