<?xml version="1.0" encoding="UTF-8"?>
<svg width="29px" height="29px" viewBox="0 0 29 29" version="1.1" xmlns="http://www.w3.org/2000/svg" xmlns:xlink="http://www.w3.org/1999/xlink">
    <title>Shape</title>
    <g id="Landing" stroke="none" stroke-width="1" fill="none" fill-rule="evenodd">
        <g id="Homepage-landing" transform="translate(-821.000000, -688.000000)" fill="#FFFFFF" fill-rule="nonzero">
            <g id="social" transform="translate(590.000000, 688.000000)">
                <path d="M256.918692,1.42108547e-14 L234.322434,1.42108547e-14 C232.620653,1.42108547e-14 231.241126,1.37952723 231.241126,3.08130791 L231.241126,25.6775659 C231.241126,27.3793466 232.620653,28.7588738 234.322434,28.7588738 L256.918692,28.7588738 C258.620473,28.7588738 260,27.3793466 260,25.6775659 L260,3.08130791 C260,1.37952723 258.620473,1.42108547e-14 256.918692,1.42108547e-14 Z M242.675154,14.7712766 C236.853536,10.5462257 236.912851,10.5355695 235.349537,9.31883802 L235.349537,7.70326977 C235.349537,6.85237943 236.0393,6.16261581 236.890191,6.16261581 L254.350936,6.16261581 C255.201826,6.16261581 255.891589,6.85237943 255.891589,7.70326977 L255.891589,9.31883802 C254.32712,10.5365324 254.387269,10.5464824 248.565972,14.7713407 C247.891936,15.2627452 246.550797,16.4480858 245.620563,16.433578 C244.689559,16.4475722 243.350217,15.2635155 242.675154,14.7712766 L242.675154,14.7712766 Z M255.891589,11.9256245 L255.891589,21.055604 C255.891589,21.9064944 255.201826,22.596258 254.350936,22.596258 L236.890191,22.596258 C236.0393,22.596258 235.349537,21.9064944 235.349537,21.055604 L235.349537,11.9256245 C236.245555,12.6185336 237.489056,13.5456221 241.467409,16.432936 C242.376524,17.0967653 243.905173,18.4964494 245.620371,18.4877832 C247.346352,18.4963852 248.896635,17.0728852 249.775001,16.4319731 C253.752327,13.5454938 254.995571,12.6184694 255.891589,11.9256245 Z" id="Shape"></path>
            </g>
        </g>
    </g>
</svg>