<?xml version="1.0" encoding="UTF-8"?>
<svg width="29px" height="29px" viewBox="0 0 29 29" version="1.1" xmlns="http://www.w3.org/2000/svg" xmlns:xlink="http://www.w3.org/1999/xlink">
    <title>Shape</title>
    <g id="Landing" stroke="none" stroke-width="1" fill="none" fill-rule="evenodd">
        <g id="Homepage-landing" transform="translate(-590.000000, -688.000000)" fill="#FFFFFF" fill-rule="nonzero">
            <g id="social" transform="translate(590.000000, 688.000000)">
                <path d="M25.6777665,0 L3.08133198,0 C1.38017995,0 0,1.38017995 0,3.08133198 L0,25.6777665 C0,27.3789185 1.38017995,28.7590985 3.08133198,28.7590985 L25.6777665,28.7590985 C27.3789185,28.7590985 28.7590985,27.3789185 28.7590985,25.6777665 L28.7590985,3.08133198 C28.7590985,1.38017995 27.3789185,0 25.6777665,0 Z M22.5386595,10.1940733 C22.5514984,10.3738177 22.5514984,10.5599815 22.5514984,10.7397258 C22.5514984,16.3053817 18.314667,22.7184039 10.5728204,22.7184039 C8.18478807,22.7184039 5.97008071,22.0251042 4.10844264,20.8310881 C4.44867305,20.8696047 4.77606457,20.8824436 5.12271442,20.8824436 C7.093483,20.8824436 8.90376553,20.2148217 10.3481399,19.085 C8.49934071,19.0464833 6.94583584,17.8332088 6.41302218,16.164154 C7.06138579,16.2604456 7.64555497,16.2604456 8.3131769,16.0871207 C6.38734442,15.6955348 4.94297005,14.0008022 4.94297005,11.9530003 L4.94297005,11.9016448 C5.50146147,12.2161974 6.15624452,12.4087807 6.84312477,12.4344584 C5.67019531,11.6542631 4.96634156,10.338153 4.96864782,8.9294433 C4.96864782,8.14627142 5.17406995,7.42729396 5.53997812,6.80460812 C7.61345777,9.35954589 10.726887,11.0286007 14.2190632,11.2083451 C13.6220551,8.35169355 15.7597292,6.03427513 18.3275058,6.03427513 C19.5407803,6.03427513 20.6320854,6.54141102 21.4024184,7.36309954 C22.3524957,7.18335518 23.2640564,6.83028589 24.0729061,6.34882777 C23.7583535,7.32458289 23.097151,8.14627142 22.2241069,8.66624619 C23.0714732,8.57637401 23.8931617,8.33885467 24.6506558,8.01146315 C24.0793255,8.85241 23.3603481,9.59706523 22.5386595,10.1940733 L22.5386595,10.1940733 Z" id="Shape"></path>
            </g>
        </g>
    </g>
</svg>